<?xml version="1.0" encoding="UTF-8"?>
<svg version="1.1" xmlns="http://www.w3.org/2000/svg" width="733" height="565">
<path d="M0 0 C10.56 0 21.12 0 32 0 C32 0.99 32 1.98 32 3 C44.21 3 56.42 3 69 3 C69 3.99 69 4.98 69 6 C75.6 6 82.2 6 89 6 C89 6.99 89 7.98 89 9 C93.62 9 98.24 9 103 9 C103 9.99 103 10.98 103 12 C106.96 12 110.92 12 115 12 C115 12.66 115 13.32 115 14 C118.63 14 122.26 14 126 14 C126 14.99 126 15.98 126 17 C129.96 17 133.92 17 138 17 C138 17.99 138 18.98 138 20 C140.64 20 143.28 20 146 20 C146 20.99 146 21.98 146 23 C148.97 23 151.94 23 155 23 C155 23.99 155 24.98 155 26 C157.64 26 160.28 26 163 26 C163 26.99 163 27.98 163 29 C164.98 29 166.96 29 169 29 C169 29.99 169 30.98 169 32 C171.97 32 174.94 32 178 32 C178 32.66 178 33.32 178 34 C179.65 34 181.3 34 183 34 C183 34.99 183 35.98 183 37 C184.98 37 186.96 37 189 37 C189 37.99 189 38.98 189 40 C191.97 40 194.94 40 198 40 C198 40.99 198 41.98 198 43 C199.65 43 201.3 43 203 43 C203 43.99 203 44.98 203 46 C204.98 46 206.96 46 209 46 C209 46.99 209 47.98 209 49 C209.99 49 210.98 49 212 49 C212 49.99 212 50.98 212 52 C213.98 52 215.96 52 218 52 C218 52.66 218 53.32 218 54 C219.65 54 221.3 54 223 54 C223 54.99 223 55.98 223 57 C224.98 57 226.96 57 229 57 C229 57.99 229 58.98 229 60 C229.99 60 230.98 60 232 60 C232 60.99 232 61.98 232 63 C233.98 63 235.96 63 238 63 C238 63.99 238 64.98 238 66 C239.65 66 241.3 66 243 66 C243 66.99 243 67.98 243 69 C243.99 69 244.98 69 246 69 C246 69.99 246 70.98 246 72 C247.98 72 249.96 72 252 72 C252 72.99 252 73.98 252 75 C252.99 75 253.98 75 255 75 C255 75.66 255 76.32 255 77 C256.98 77 258.96 77 261 77 C261 77.99 261 78.98 261 80 C261.66 80 262.32 80 263 80 C263 80.99 263 81.98 263 83 C263.99 83 264.98 83 266 83 C266 83.99 266 84.98 266 86 C266.99 86 267.98 86 269 86 C269 86.99 269 87.98 269 89 C269.99 89 270.98 89 272 89 C272 89.99 272 90.98 272 92 C272.99 92 273.98 92 275 92 C275 93.65 275 95.3 275 97 C275.99 97 276.98 97 278 97 C278 104.59 278 112.18 278 120 C277.01 120 276.02 120 275 120 C275 121.98 275 123.96 275 126 C274.01 126 273.02 126 272 126 C272 126.99 272 127.98 272 129 C271.01 129 270.02 129 269 129 C269 129.99 269 130.98 269 132 C268.01 132 267.02 132 266 132 C266 132.99 266 133.98 266 135 C265.01 135 264.02 135 263 135 C263 136.65 263 138.3 263 140 C262.34 140 261.68 140 261 140 C261 140.99 261 141.98 261 143 C260.01 143 259.02 143 258 143 C258 143.99 258 144.98 258 146 C257.01 146 256.02 146 255 146 C255 146.99 255 147.98 255 149 C254.01 149 253.02 149 252 149 C252 149.99 252 150.98 252 152 C251.01 152 250.02 152 249 152 C249 152.99 249 153.98 249 155 C248.01 155 247.02 155 246 155 C246 155.99 246 156.98 246 158 C245.01 158 244.02 158 243 158 C243 159.65 243 161.3 243 163 C242.34 163 241.68 163 241 163 C241 163.99 241 164.98 241 166 C240.01 166 239.02 166 238 166 C238 166.99 238 167.98 238 169 C237.01 169 236.02 169 235 169 C235 169.99 235 170.98 235 172 C234.01 172 233.02 172 232 172 C232 172.99 232 173.98 232 175 C231.01 175 230.02 175 229 175 C229 175.99 229 176.98 229 178 C228.01 178 227.02 178 226 178 C226 179.65 226 181.3 226 183 C225.01 183 224.02 183 223 183 C223 183.99 223 184.98 223 186 C222.34 186 221.68 186 221 186 C221 186.99 221 187.98 221 189 C220.01 189 219.02 189 218 189 C218 189.99 218 190.98 218 192 C217.01 192 216.02 192 215 192 C215 192.99 215 193.98 215 195 C214.01 195 213.02 195 212 195 C212 195.99 212 196.98 212 198 C211.01 198 210.02 198 209 198 C209 198.66 209 199.32 209 200 C208.01 200 207.02 200 206 200 C206 201.98 206 203.96 206 206 C205.01 206 204.02 206 203 206 C203 206.99 203 207.98 203 209 C202.34 209 201.68 209 201 209 C201 209.99 201 210.98 201 212 C200.01 212 199.02 212 198 212 C198 212.99 198 213.98 198 215 C197.01 215 196.02 215 195 215 C195 215.99 195 216.98 195 218 C194.01 218 193.02 218 192 218 C192 218.66 192 219.32 192 220 C191.01 220 190.02 220 189 220 C189 221.98 189 223.96 189 226 C188.01 226 187.02 226 186 226 C186 226.99 186 227.98 186 229 C185.01 229 184.02 229 183 229 C183 229.99 183 230.98 183 232 C182.01 232 181.02 232 180 232 C180 232.99 180 233.98 180 235 C179.34 235 178.68 235 178 235 C178 235.99 178 236.98 178 238 C177.01 238 176.02 238 175 238 C175 238.99 175 239.98 175 241 C174.01 241 173.02 241 172 241 C172 241.66 172 242.32 172 243 C171.01 243 170.02 243 169 243 C169 244.98 169 246.96 169 249 C168.01 249 167.02 249 166 249 C166 249.99 166 250.98 166 252 C165.01 252 164.02 252 163 252 C163 252.99 163 253.98 163 255 C162.01 255 161.02 255 160 255 C160 255.99 160 256.98 160 258 C159.34 258 158.68 258 158 258 C158 258.99 158 259.98 158 261 C157.01 261 156.02 261 155 261 C155 261.66 155 262.32 155 263 C154.01 263 153.02 263 152 263 C152 264.98 152 266.96 152 269 C151.01 269 150.02 269 149 269 C149 269.99 149 270.98 149 272 C148.01 272 147.02 272 146 272 C146 272.99 146 273.98 146 275 C145.01 275 144.02 275 143 275 C143 275.99 143 276.98 143 278 C142.01 278 141.02 278 140 278 C140 278.99 140 279.98 140 281 C139.34 281 138.68 281 138 281 C138 281.66 138 282.32 138 283 C137.01 283 136.02 283 135 283 C135 283.99 135 284.98 135 286 C134.01 286 133.02 286 132 286 C132 287.98 132 289.96 132 292 C131.01 292 130.02 292 129 292 C129 292.99 129 293.98 129 295 C128.01 295 127.02 295 126 295 C126 295.99 126 296.98 126 298 C125.01 298 124.02 298 123 298 C123 298.99 123 299.98 123 301 C122.01 301 121.02 301 120 301 C120 301.66 120 302.32 120 303 C119.34 303 118.68 303 118 303 C118 303.99 118 304.98 118 306 C117.01 306 116.02 306 115 306 C115 306.99 115 307.98 115 309 C114.01 309 113.02 309 112 309 C112 310.98 112 312.96 112 315 C111.01 315 110.02 315 109 315 C109 315.99 109 316.98 109 318 C108.01 318 107.02 318 106 318 C106 318.99 106 319.98 106 321 C105.01 321 104.02 321 103 321 C103 321.99 103 322.98 103 324 C102.01 324 101.02 324 100 324 C100 324.66 100 325.32 100 326 C99.01 326 98.02 326 97 326 C97 326.99 97 327.98 97 329 C96.34 329 95.68 329 95 329 C95 330.98 95 332.96 95 335 C94.01 335 93.02 335 92 335 C92 335.99 92 336.98 92 338 C91.01 338 90.02 338 89 338 C89 338.99 89 339.98 89 341 C88.01 341 87.02 341 86 341 C86 341.99 86 342.98 86 344 C85.01 344 84.02 344 83 344 C83 344.66 83 345.32 83 346 C82.01 346 81.02 346 80 346 C80 346.99 80 347.98 80 349 C79.01 349 78.02 349 77 349 C77 349.99 77 350.98 77 352 C76.34 352 75.68 352 75 352 C75 353.98 75 355.96 75 358 C74.01 358 73.02 358 72 358 C72 358.99 72 359.98 72 361 C71.01 361 70.02 361 69 361 C69 361.99 69 362.98 69 364 C68.01 364 67.02 364 66 364 C66 364.66 66 365.32 66 366 C65.01 366 64.02 366 63 366 C63 366.99 63 367.98 63 369 C62.01 369 61.02 369 60 369 C60 369.99 60 370.98 60 372 C59.01 372 58.02 372 57 372 C57 373.98 57 375.96 57 378 C56.34 378 55.68 378 55 378 C55 378.99 55 379.98 55 381 C54.01 381 53.02 381 52 381 C52 381.99 52 382.98 52 384 C51.01 384 50.02 384 49 384 C49 384.66 49 385.32 49 386 C48.01 386 47.02 386 46 386 C46 386.99 46 387.98 46 389 C45.01 389 44.02 389 43 389 C43 389.99 43 390.98 43 392 C42.01 392 41.02 392 40 392 C40 392.99 40 393.98 40 395 C39.01 395 38.02 395 37 395 C37 395.99 37 396.98 37 398 C36.34 398 35.68 398 35 398 C35 398.99 35 399.98 35 401 C34.01 401 33.02 401 32 401 C32 401.99 32 402.98 32 404 C30.02 404 28.04 404 26 404 C26 404.99 26 405.98 26 407 C19.4 407 12.8 407 6 407 C6 406.01 6 405.02 6 404 C4.02 404 2.04 404 0 404 C0 403.01 0 402.02 0 401 C-1.98 401 -3.96 401 -6 401 C-6 400.01 -6 399.02 -6 398 C-6.66 398 -7.32 398 -8 398 C-8 396.02 -8 394.04 -8 392 C-8.99 392 -9.98 392 -11 392 C-11 391.01 -11 390.02 -11 389 C-11.99 389 -12.98 389 -14 389 C-14 388.01 -14 387.02 -14 386 C-14.99 386 -15.98 386 -17 386 C-17 385.34 -17 384.68 -17 384 C-17.99 384 -18.98 384 -20 384 C-20 383.01 -20 382.02 -20 381 C-20.99 381 -21.98 381 -23 381 C-23 380.01 -23 379.02 -23 378 C-23.99 378 -24.98 378 -26 378 C-26 377.01 -26 376.02 -26 375 C-26.66 375 -27.32 375 -28 375 C-28 373.02 -28 371.04 -28 369 C-28.99 369 -29.98 369 -31 369 C-31 368.01 -31 367.02 -31 366 C-31.99 366 -32.98 366 -34 366 C-34 365.34 -34 364.68 -34 364 C-34.99 364 -35.98 364 -37 364 C-37 363.01 -37 362.02 -37 361 C-37.99 361 -38.98 361 -40 361 C-40 360.01 -40 359.02 -40 358 C-40.99 358 -41.98 358 -43 358 C-43 357.01 -43 356.02 -43 355 C-43.99 355 -44.98 355 -46 355 C-46 353.02 -46 351.04 -46 349 C-46.66 349 -47.32 349 -48 349 C-48 348.01 -48 347.02 -48 346 C-48.99 346 -49.98 346 -51 346 C-51 345.34 -51 344.68 -51 344 C-51.99 344 -52.98 344 -54 344 C-54 343.01 -54 342.02 -54 341 C-54.99 341 -55.98 341 -57 341 C-57 340.01 -57 339.02 -57 338 C-57.99 338 -58.98 338 -60 338 C-60 337.01 -60 336.02 -60 335 C-60.99 335 -61.98 335 -63 335 C-63 334.01 -63 333.02 -63 332 C-63.99 332 -64.98 332 -66 332 C-66 330.02 -66 328.04 -66 326 C-66.99 326 -67.98 326 -69 326 C-69 325.34 -69 324.68 -69 324 C-69.66 324 -70.32 324 -71 324 C-71 323.01 -71 322.02 -71 321 C-71.99 321 -72.98 321 -74 321 C-74 320.01 -74 319.02 -74 318 C-74.99 318 -75.98 318 -77 318 C-77 317.01 -77 316.02 -77 315 C-77.99 315 -78.98 315 -80 315 C-80 314.01 -80 313.02 -80 312 C-80.99 312 -81.98 312 -83 312 C-83 310.02 -83 308.04 -83 306 C-83.99 306 -84.98 306 -86 306 C-86 305.01 -86 304.02 -86 303 C-86.99 303 -87.98 303 -89 303 C-89 302.34 -89 301.68 -89 301 C-89.66 301 -90.32 301 -91 301 C-91 300.01 -91 299.02 -91 298 C-91.99 298 -92.98 298 -94 298 C-94 297.01 -94 296.02 -94 295 C-94.99 295 -95.98 295 -97 295 C-97 294.01 -97 293.02 -97 292 C-97.99 292 -98.98 292 -100 292 C-100 291.01 -100 290.02 -100 289 C-100.99 289 -101.98 289 -103 289 C-103 287.02 -103 285.04 -103 283 C-103.99 283 -104.98 283 -106 283 C-106 282.34 -106 281.68 -106 281 C-106.99 281 -107.98 281 -109 281 C-109 280.01 -109 279.02 -109 278 C-109.66 278 -110.32 278 -111 278 C-111 277.01 -111 276.02 -111 275 C-111.99 275 -112.98 275 -114 275 C-114 274.01 -114 273.02 -114 272 C-114.99 272 -115.98 272 -117 272 C-117 271.01 -117 270.02 -117 269 C-117.99 269 -118.98 269 -120 269 C-120 268.01 -120 267.02 -120 266 C-120.99 266 -121.98 266 -123 266 C-123 264.35 -123 262.7 -123 261 C-123.99 261 -124.98 261 -126 261 C-126 260.01 -126 259.02 -126 258 C-126.99 258 -127.98 258 -129 258 C-129 257.01 -129 256.02 -129 255 C-129.66 255 -130.32 255 -131 255 C-131 254.01 -131 253.02 -131 252 C-131.99 252 -132.98 252 -134 252 C-134 251.01 -134 250.02 -134 249 C-134.99 249 -135.98 249 -137 249 C-137 248.01 -137 247.02 -137 246 C-137.99 246 -138.98 246 -140 246 C-140 244.35 -140 242.7 -140 241 C-140.99 241 -141.98 241 -143 241 C-143 240.01 -143 239.02 -143 238 C-143.99 238 -144.98 238 -146 238 C-146 237.01 -146 236.02 -146 235 C-146.99 235 -147.98 235 -149 235 C-149 234.01 -149 233.02 -149 232 C-149.99 232 -150.98 232 -152 232 C-152 231.01 -152 230.02 -152 229 C-152.66 229 -153.32 229 -154 229 C-154 228.01 -154 227.02 -154 226 C-154.99 226 -155.98 226 -157 226 C-157 225.01 -157 224.02 -157 223 C-157.99 223 -158.98 223 -160 223 C-160 221.35 -160 219.7 -160 218 C-160.99 218 -161.98 218 -163 218 C-163 217.01 -163 216.02 -163 215 C-163.99 215 -164.98 215 -166 215 C-166 214.01 -166 213.02 -166 212 C-166.99 212 -167.98 212 -169 212 C-169 211.01 -169 210.02 -169 209 C-169.99 209 -170.98 209 -172 209 C-172 208.01 -172 207.02 -172 206 C-172.66 206 -173.32 206 -174 206 C-174 205.01 -174 204.02 -174 203 C-174.99 203 -175.98 203 -177 203 C-177 201.35 -177 199.7 -177 198 C-177.99 198 -178.98 198 -180 198 C-180 197.01 -180 196.02 -180 195 C-180.99 195 -181.98 195 -183 195 C-183 194.01 -183 193.02 -183 192 C-183.99 192 -184.98 192 -186 192 C-186 191.01 -186 190.02 -186 189 C-186.99 189 -187.98 189 -189 189 C-189 188.01 -189 187.02 -189 186 C-189.99 186 -190.98 186 -192 186 C-192 185.01 -192 184.02 -192 183 C-192.66 183 -193.32 183 -194 183 C-194 182.01 -194 181.02 -194 180 C-194.99 180 -195.98 180 -197 180 C-197 178.35 -197 176.7 -197 175 C-197.99 175 -198.98 175 -200 175 C-200 174.01 -200 173.02 -200 172 C-200.99 172 -201.98 172 -203 172 C-203 171.01 -203 170.02 -203 169 C-203.99 169 -204.98 169 -206 169 C-206 168.01 -206 167.02 -206 166 C-206.99 166 -207.98 166 -209 166 C-209 165.01 -209 164.02 -209 163 C-209.99 163 -210.98 163 -212 163 C-212 162.01 -212 161.02 -212 160 C-212.66 160 -213.32 160 -214 160 C-214 158.35 -214 156.7 -214 155 C-214.99 155 -215.98 155 -217 155 C-217 154.01 -217 153.02 -217 152 C-217.99 152 -218.98 152 -220 152 C-220 151.01 -220 150.02 -220 149 C-220.99 149 -221.98 149 -223 149 C-223 148.01 -223 147.02 -223 146 C-223.99 146 -224.98 146 -226 146 C-226 145.01 -226 144.02 -226 143 C-226.99 143 -227.98 143 -229 143 C-229 142.01 -229 141.02 -229 140 C-229.99 140 -230.98 140 -232 140 C-232 139.01 -232 138.02 -232 137 C-232.99 137 -233.98 137 -235 137 C-235 135.35 -235 133.7 -235 132 C-235.66 132 -236.32 132 -237 132 C-237 131.01 -237 130.02 -237 129 C-237.99 129 -238.98 129 -240 129 C-240 128.01 -240 127.02 -240 126 C-240.99 126 -241.98 126 -243 126 C-243 124.02 -243 122.04 -243 120 C-243.99 120 -244.98 120 -246 120 C-246 112.41 -246 104.82 -246 97 C-245.01 97 -244.02 97 -243 97 C-243 95.35 -243 93.7 -243 92 C-242.01 92 -241.02 92 -240 92 C-240 90.02 -240 88.04 -240 86 C-238.35 86 -236.7 86 -235 86 C-235 85.01 -235 84.02 -235 83 C-234.01 83 -233.02 83 -232 83 C-232 82.01 -232 81.02 -232 80 C-231.01 80 -230.02 80 -229 80 C-229 79.01 -229 78.02 -229 77 C-227.02 77 -225.04 77 -223 77 C-223 76.34 -223 75.68 -223 75 C-222.01 75 -221.02 75 -220 75 C-220 74.01 -220 73.02 -220 72 C-218.02 72 -216.04 72 -214 72 C-214 71.01 -214 70.02 -214 69 C-213.34 69 -212.68 69 -212 69 C-212 68.01 -212 67.02 -212 66 C-210.02 66 -208.04 66 -206 66 C-206 65.01 -206 64.02 -206 63 C-205.01 63 -204.02 63 -203 63 C-203 62.01 -203 61.02 -203 60 C-201.02 60 -199.04 60 -197 60 C-197 59.01 -197 58.02 -197 57 C-195.35 57 -193.7 57 -192 57 C-192 56.01 -192 55.02 -192 54 C-190.02 54 -188.04 54 -186 54 C-186 53.34 -186 52.68 -186 52 C-185.01 52 -184.02 52 -183 52 C-183 51.01 -183 50.02 -183 49 C-181.02 49 -179.04 49 -177 49 C-177 48.01 -177 47.02 -177 46 C-175.35 46 -173.7 46 -172 46 C-172 45.01 -172 44.02 -172 43 C-170.02 43 -168.04 43 -166 43 C-166 42.01 -166 41.02 -166 40 C-164.02 40 -162.04 40 -160 40 C-160 39.01 -160 38.02 -160 37 C-157.36 37 -154.72 37 -152 37 C-152 36.01 -152 35.02 -152 34 C-150.02 34 -148.04 34 -146 34 C-146 33.34 -146 32.68 -146 32 C-143.03 32 -140.06 32 -137 32 C-137 31.01 -137 30.02 -137 29 C-135.02 29 -133.04 29 -131 29 C-131 28.01 -131 27.02 -131 26 C-128.36 26 -125.72 26 -123 26 C-123 25.01 -123 24.02 -123 23 C-120.03 23 -117.06 23 -114 23 C-114 22.01 -114 21.02 -114 20 C-111.36 20 -108.72 20 -106 20 C-106 19.01 -106 18.02 -106 17 C-102.04 17 -98.08 17 -94 17 C-94 16.01 -94 15.02 -94 14 C-90.37 14 -86.74 14 -83 14 C-83 13.34 -83 12.68 -83 12 C-79.04 12 -75.08 12 -71 12 C-71 11.01 -71 10.02 -71 9 C-66.38 9 -61.76 9 -57 9 C-57 8.01 -57 7.02 -57 6 C-50.4 6 -43.8 6 -37 6 C-37 5.01 -37 4.02 -37 3 C-24.79 3 -12.58 3 0 3 C0 2.01 0 1.02 0 0 Z " fill="#4DA6FF" transform="translate(355,106)"/>
<path d="M0 0 C34.98 0 69.96 0 106 0 C106 0.99 106 1.98 106 3 C113.59 3 121.18 3 129 3 C129 3.99 129 4.98 129 6 C134.61 6 140.22 6 146 6 C146 6.99 146 7.98 146 9 C150.62 9 155.24 9 160 9 C160 9.99 160 10.98 160 12 C164.95 12 169.9 12 175 12 C175 12.99 175 13.98 175 15 C178.63 15 182.26 15 186 15 C186 15.66 186 16.32 186 17 C189.63 17 193.26 17 197 17 C197 17.99 197 18.98 197 20 C199.97 20 202.94 20 206 20 C206 20.99 206 21.98 206 23 C208.97 23 211.94 23 215 23 C215 23.99 215 24.98 215 26 C217.64 26 220.28 26 223 26 C223 26.99 223 27.98 223 29 C225.97 29 228.94 29 232 29 C232 29.99 232 30.98 232 32 C234.64 32 237.28 32 240 32 C240 32.99 240 33.98 240 35 C242.97 35 245.94 35 249 35 C249 35.66 249 36.32 249 37 C250.98 37 252.96 37 255 37 C255 37.99 255 38.98 255 40 C256.65 40 258.3 40 260 40 C260 40.99 260 41.98 260 43 C262.97 43 265.94 43 269 43 C269 43.99 269 44.98 269 46 C270.98 46 272.96 46 275 46 C275 46.99 275 47.98 275 49 C276.65 49 278.3 49 280 49 C280 49.99 280 50.98 280 52 C281.98 52 283.96 52 286 52 C286 52.99 286 53.98 286 55 C287.98 55 289.96 55 292 55 C292 55.66 292 56.32 292 57 C293.98 57 295.96 57 298 57 C298 57.99 298 58.98 298 60 C299.65 60 301.3 60 303 60 C303 60.99 303 61.98 303 63 C304.98 63 306.96 63 309 63 C309 63.99 309 64.98 309 66 C309.99 66 310.98 66 312 66 C312 66.99 312 67.98 312 69 C313.98 69 315.96 69 318 69 C318 69.99 318 70.98 318 72 C319.65 72 321.3 72 323 72 C323 72.99 323 73.98 323 75 C324.98 75 326.96 75 329 75 C329 75.66 329 76.32 329 77 C329.99 77 330.98 77 332 77 C332 77.99 332 78.98 332 80 C333.98 80 335.96 80 338 80 C338 80.99 338 81.98 338 83 C338.99 83 339.98 83 341 83 C341 83.99 341 84.98 341 86 C342.65 86 344.3 86 346 86 C346 86.99 346 87.98 346 89 C346.99 89 347.98 89 349 89 C349 89.99 349 90.98 349 92 C350.98 92 352.96 92 355 92 C355 92.99 355 93.98 355 95 C355.99 95 356.98 95 358 95 C358 95.99 358 96.98 358 98 C359.65 98 361.3 98 363 98 C363 98.66 363 99.32 363 100 C363.99 100 364.98 100 366 100 C366 100.99 366 101.98 366 103 C366.99 103 367.98 103 369 103 C369 103.99 369 104.98 369 106 C370.98 106 372.96 106 375 106 C375 106.99 375 107.98 375 109 C375.99 109 376.98 109 378 109 C378 109.99 378 110.98 378 112 C378.99 112 379.98 112 381 112 C381 113.98 381 115.96 381 118 C381.66 118 382.32 118 383 118 C383 119.65 383 121.3 383 123 C383.99 123 384.98 123 386 123 C386 129.6 386 136.2 386 143 C385.01 143 384.02 143 383 143 C383 144.98 383 146.96 383 149 C382.34 149 381.68 149 381 149 C381 149.99 381 150.98 381 152 C380.01 152 379.02 152 378 152 C378 152.99 378 153.98 378 155 C377.01 155 376.02 155 375 155 C375 155.99 375 156.98 375 158 C374.01 158 373.02 158 372 158 C372 158.66 372 159.32 372 160 C369.03 160 366.06 160 363 160 C363 160.99 363 161.98 363 163 C358.38 163 353.76 163 349 163 C349 162.01 349 161.02 349 160 C346.36 160 343.72 160 341 160 C341 159.34 341 158.68 341 158 C340.01 158 339.02 158 338 158 C338 157.01 338 156.02 338 155 C336.02 155 334.04 155 332 155 C332 154.01 332 153.02 332 152 C331.01 152 330.02 152 329 152 C329 151.01 329 150.02 329 149 C328.01 149 327.02 149 326 149 C326 148.01 326 147.02 326 146 C324.35 146 322.7 146 321 146 C321 145.01 321 144.02 321 143 C320.01 143 319.02 143 318 143 C318 142.01 318 141.02 318 140 C316.02 140 314.04 140 312 140 C312 139.34 312 138.68 312 138 C311.01 138 310.02 138 309 138 C309 137.01 309 136.02 309 135 C307.02 135 305.04 135 303 135 C303 134.01 303 133.02 303 132 C302.01 132 301.02 132 300 132 C300 131.01 300 130.02 300 129 C298.35 129 296.7 129 295 129 C295 128.01 295 127.02 295 126 C294.01 126 293.02 126 292 126 C292 125.01 292 124.02 292 123 C290.02 123 288.04 123 286 123 C286 122.01 286 121.02 286 120 C284.02 120 282.04 120 280 120 C280 119.34 280 118.68 280 118 C278.35 118 276.7 118 275 118 C275 117.01 275 116.02 275 115 C273.02 115 271.04 115 269 115 C269 114.01 269 113.02 269 112 C267.02 112 265.04 112 263 112 C263 111.01 263 110.02 263 109 C262.01 109 261.02 109 260 109 C260 108.01 260 107.02 260 106 C257.36 106 254.72 106 252 106 C252 105.01 252 104.02 252 103 C250.02 103 248.04 103 246 103 C246 102.01 246 101.02 246 100 C244.02 100 242.04 100 240 100 C240 99.34 240 98.68 240 98 C238.35 98 236.7 98 235 98 C235 97.01 235 96.02 235 95 C232.03 95 229.06 95 226 95 C226 94.01 226 93.02 226 92 C224.02 92 222.04 92 220 92 C220 91.01 220 90.02 220 89 C217.36 89 214.72 89 212 89 C212 88.01 212 87.02 212 86 C209.03 86 206.06 86 203 86 C203 85.01 203 84.02 203 83 C200.36 83 197.72 83 195 83 C195 82.01 195 81.02 195 80 C192.03 80 189.06 80 186 80 C186 79.01 186 78.02 186 77 C183.03 77 180.06 77 177 77 C177 76.34 177 75.68 177 75 C173.37 75 169.74 75 166 75 C166 74.01 166 73.02 166 72 C162.37 72 158.74 72 155 72 C155 71.01 155 70.02 155 69 C150.05 69 145.1 69 140 69 C140 68.01 140 67.02 140 66 C134.39 66 128.78 66 123 66 C123 65.01 123 64.02 123 63 C116.4 63 109.8 63 103 63 C103 62.01 103 61.02 103 60 C70 60 37 60 3 60 C3 60.99 3 61.98 3 63 C-3.6 63 -10.2 63 -17 63 C-17 63.99 -17 64.98 -17 66 C-22.61 66 -28.22 66 -34 66 C-34 66.99 -34 67.98 -34 69 C-38.95 69 -43.9 69 -49 69 C-49 69.99 -49 70.98 -49 72 C-52.63 72 -56.26 72 -60 72 C-60 72.99 -60 73.98 -60 75 C-63.96 75 -67.92 75 -72 75 C-72 75.66 -72 76.32 -72 77 C-74.64 77 -77.28 77 -80 77 C-80 77.99 -80 78.98 -80 80 C-83.96 80 -87.92 80 -92 80 C-92 80.99 -92 81.98 -92 83 C-94.64 83 -97.28 83 -100 83 C-100 83.99 -100 84.98 -100 86 C-101.98 86 -103.96 86 -106 86 C-106 86.99 -106 87.98 -106 89 C-108.97 89 -111.94 89 -115 89 C-115 89.99 -115 90.98 -115 92 C-117.64 92 -120.28 92 -123 92 C-123 92.99 -123 93.98 -123 95 C-124.98 95 -126.96 95 -129 95 C-129 95.99 -129 96.98 -129 98 C-130.98 98 -132.96 98 -135 98 C-135 98.66 -135 99.32 -135 100 C-136.65 100 -138.3 100 -140 100 C-140 100.99 -140 101.98 -140 103 C-142.97 103 -145.94 103 -149 103 C-149 103.99 -149 104.98 -149 106 C-150.98 106 -152.96 106 -155 106 C-155 106.99 -155 107.98 -155 109 C-156.65 109 -158.3 109 -160 109 C-160 109.99 -160 110.98 -160 112 C-161.98 112 -163.96 112 -166 112 C-166 112.99 -166 113.98 -166 115 C-166.99 115 -167.98 115 -169 115 C-169 115.99 -169 116.98 -169 118 C-170.98 118 -172.96 118 -175 118 C-175 118.66 -175 119.32 -175 120 C-176.65 120 -178.3 120 -180 120 C-180 120.99 -180 121.98 -180 123 C-181.98 123 -183.96 123 -186 123 C-186 123.99 -186 124.98 -186 126 C-186.99 126 -187.98 126 -189 126 C-189 126.99 -189 127.98 -189 129 C-190.98 129 -192.96 129 -195 129 C-195 129.99 -195 130.98 -195 132 C-196.65 132 -198.3 132 -200 132 C-200 132.99 -200 133.98 -200 135 C-200.99 135 -201.98 135 -203 135 C-203 135.99 -203 136.98 -203 138 C-204.98 138 -206.96 138 -209 138 C-209 138.66 -209 139.32 -209 140 C-209.99 140 -210.98 140 -212 140 C-212 140.99 -212 141.98 -212 143 C-212.99 143 -213.98 143 -215 143 C-215 143.99 -215 144.98 -215 146 C-216.65 146 -218.3 146 -220 146 C-220 146.99 -220 147.98 -220 149 C-220.99 149 -221.98 149 -223 149 C-223 149.99 -223 150.98 -223 152 C-224.98 152 -226.96 152 -229 152 C-229 152.99 -229 153.98 -229 155 C-229.99 155 -230.98 155 -232 155 C-232 155.99 -232 156.98 -232 158 C-232.99 158 -233.98 158 -235 158 C-235 158.66 -235 159.32 -235 160 C-237.64 160 -240.28 160 -243 160 C-243 160.99 -243 161.98 -243 163 C-247.95 163 -252.9 163 -258 163 C-258 162.01 -258 161.02 -258 160 C-260.64 160 -263.28 160 -266 160 C-266 159.34 -266 158.68 -266 158 C-266.99 158 -267.98 158 -269 158 C-269 157.01 -269 156.02 -269 155 C-269.99 155 -270.98 155 -272 155 C-272 154.01 -272 153.02 -272 152 C-272.99 152 -273.98 152 -275 152 C-275 151.01 -275 150.02 -275 149 C-275.99 149 -276.98 149 -278 149 C-278 147.02 -278 145.04 -278 143 C-278.99 143 -279.98 143 -281 143 C-281 135.41 -281 127.82 -281 120 C-280.01 120 -279.02 120 -278 120 C-278 118.35 -278 116.7 -278 115 C-277.01 115 -276.02 115 -275 115 C-275 114.01 -275 113.02 -275 112 C-274.01 112 -273.02 112 -272 112 C-272 111.01 -272 110.02 -272 109 C-271.01 109 -270.02 109 -269 109 C-269 108.01 -269 107.02 -269 106 C-267.02 106 -265.04 106 -263 106 C-263 105.01 -263 104.02 -263 103 C-262.01 103 -261.02 103 -260 103 C-260 102.01 -260 101.02 -260 100 C-259.34 100 -258.68 100 -258 100 C-258 99.34 -258 98.68 -258 98 C-256.02 98 -254.04 98 -252 98 C-252 97.01 -252 96.02 -252 95 C-251.01 95 -250.02 95 -249 95 C-249 94.01 -249 93.02 -249 92 C-247.02 92 -245.04 92 -243 92 C-243 91.01 -243 90.02 -243 89 C-242.01 89 -241.02 89 -240 89 C-240 88.01 -240 87.02 -240 86 C-238.35 86 -236.7 86 -235 86 C-235 85.01 -235 84.02 -235 83 C-234.01 83 -233.02 83 -232 83 C-232 82.01 -232 81.02 -232 80 C-230.02 80 -228.04 80 -226 80 C-226 79.01 -226 78.02 -226 77 C-225.01 77 -224.02 77 -223 77 C-223 76.34 -223 75.68 -223 75 C-221.35 75 -219.7 75 -218 75 C-218 74.01 -218 73.02 -218 72 C-216.02 72 -214.04 72 -212 72 C-212 71.01 -212 70.02 -212 69 C-211.01 69 -210.02 69 -209 69 C-209 68.01 -209 67.02 -209 66 C-207.02 66 -205.04 66 -203 66 C-203 65.01 -203 64.02 -203 63 C-201.35 63 -199.7 63 -198 63 C-198 62.01 -198 61.02 -198 60 C-196.02 60 -194.04 60 -192 60 C-192 59.01 -192 58.02 -192 57 C-190.02 57 -188.04 57 -186 57 C-186 56.34 -186 55.68 -186 55 C-184.02 55 -182.04 55 -180 55 C-180 54.01 -180 53.02 -180 52 C-178.35 52 -176.7 52 -175 52 C-175 51.01 -175 50.02 -175 49 C-173.02 49 -171.04 49 -169 49 C-169 48.01 -169 47.02 -169 46 C-167.02 46 -165.04 46 -163 46 C-163 45.01 -163 44.02 -163 43 C-161.02 43 -159.04 43 -157 43 C-157 42.01 -157 41.02 -157 40 C-154.36 40 -151.72 40 -149 40 C-149 39.01 -149 38.02 -149 37 C-147.02 37 -145.04 37 -143 37 C-143 36.34 -143 35.68 -143 35 C-140.36 35 -137.72 35 -135 35 C-135 34.01 -135 33.02 -135 32 C-132.03 32 -129.06 32 -126 32 C-126 31.01 -126 30.02 -126 29 C-124.02 29 -122.04 29 -120 29 C-120 28.01 -120 27.02 -120 26 C-117.36 26 -114.72 26 -112 26 C-112 25.01 -112 24.02 -112 23 C-108.04 23 -104.08 23 -100 23 C-100 22.01 -100 21.02 -100 20 C-97.36 20 -94.72 20 -92 20 C-92 19.01 -92 18.02 -92 17 C-88.04 17 -84.08 17 -80 17 C-80 16.34 -80 15.68 -80 15 C-76.37 15 -72.74 15 -69 15 C-69 14.01 -69 13.02 -69 12 C-65.04 12 -61.08 12 -57 12 C-57 11.01 -57 10.02 -57 9 C-51.39 9 -45.78 9 -40 9 C-40 8.01 -40 7.02 -40 6 C-34.39 6 -28.78 6 -23 6 C-23 5.01 -23 4.02 -23 3 C-15.41 3 -7.82 3 0 3 C0 2.01 0 1.02 0 0 Z " fill="#4DA6FF" transform="translate(318,0)"/>
<path d="M0 0 C0.99 0 1.98 0 3 0 C3 0.99 3 1.98 3 3 C3.99 3 4.98 3 6 3 C6 3.99 6 4.98 6 6 C6.66 6 7.32 6 8 6 C8 6.99 8 7.98 8 9 C8.99 9 9.98 9 11 9 C11 9.99 11 10.98 11 12 C11.99 12 12.98 12 14 12 C14 12.99 14 13.98 14 15 C14.99 15 15.98 15 17 15 C17 16.65 17 18.3 17 20 C17.99 20 18.98 20 20 20 C20 20.99 20 21.98 20 23 C20.99 23 21.98 23 23 23 C23 23.99 23 24.98 23 26 C23.99 26 24.98 26 26 26 C26 26.99 26 27.98 26 29 C26.66 29 27.32 29 28 29 C28 29.99 28 30.98 28 32 C28.99 32 29.98 32 31 32 C31 32.99 31 33.98 31 35 C31.99 35 32.98 35 34 35 C34 35.99 34 36.98 34 38 C34.99 38 35.98 38 37 38 C37 39.65 37 41.3 37 43 C37.99 43 38.98 43 40 43 C40 43.99 40 44.98 40 46 C40.99 46 41.98 46 43 46 C43 46.99 43 47.98 43 49 C43.99 49 44.98 49 46 49 C46 49.99 46 50.98 46 52 C46.99 52 47.98 52 49 52 C49 52.99 49 53.98 49 55 C49.66 55 50.32 55 51 55 C51 55.99 51 56.98 51 58 C51.99 58 52.98 58 54 58 C54 59.65 54 61.3 54 63 C54.99 63 55.98 63 57 63 C57 63.99 57 64.98 57 66 C57.99 66 58.98 66 60 66 C60 66.99 60 67.98 60 69 C60.99 69 61.98 69 63 69 C63 69.99 63 70.98 63 72 C63.99 72 64.98 72 66 72 C66 72.99 66 73.98 66 75 C66.99 75 67.98 75 69 75 C69 75.99 69 76.98 69 78 C69.66 78 70.32 78 71 78 C71 78.99 71 79.98 71 81 C71.99 81 72.98 81 74 81 C74 82.65 74 84.3 74 86 C74.99 86 75.98 86 77 86 C77 86.99 77 87.98 77 89 C77.99 89 78.98 89 80 89 C80 89.99 80 90.98 80 92 C80.99 92 81.98 92 83 92 C83 92.99 83 93.98 83 95 C83.99 95 84.98 95 86 95 C86 95.99 86 96.98 86 98 C86.99 98 87.98 98 89 98 C89 98.99 89 99.98 89 101 C89.66 101 90.32 101 91 101 C91 102.65 91 104.3 91 106 C91.99 106 92.98 106 94 106 C94 106.99 94 107.98 94 109 C94.99 109 95.98 109 97 109 C97 109.99 97 110.98 97 112 C97.99 112 98.98 112 100 112 C100 112.99 100 113.98 100 115 C100.99 115 101.98 115 103 115 C103 115.99 103 116.98 103 118 C103.99 118 104.98 118 106 118 C106 118.99 106 119.98 106 121 C106.99 121 107.98 121 109 121 C109 121.66 109 122.32 109 123 C109.66 123 110.32 123 111 123 C111 124.98 111 126.96 111 129 C111.99 129 112.98 129 114 129 C114 129.99 114 130.98 114 132 C114.99 132 115.98 132 117 132 C117 214.17 117 296.34 117 381 C75.42 381 33.84 381 -9 381 C-9 271.44 -9 161.88 -9 49 C-8.01 49 -7.02 49 -6 49 C-6 40.42 -6 31.84 -6 23 C-5.01 23 -4.02 23 -3 23 C-3 18.38 -3 13.76 -3 9 C-2.01 9 -1.02 9 0 9 C0 6.03 0 3.06 0 0 Z " fill="#4DA6FF" transform="translate(9,183)"/>
<path d="M0 0 C0.66 0 1.32 0 2 0 C2 1.98 2 3.96 2 6 C2.99 6 3.98 6 5 6 C5 10.62 5 15.24 5 20 C5.99 20 6.98 20 8 20 C8 26.6 8 33.2 8 40 C8.99 40 9.98 40 11 40 C11 152.53 11 265.06 11 381 C-30.58 381 -72.16 381 -115 381 C-115 298.83 -115 216.66 -115 132 C-114.01 132 -113.02 132 -112 132 C-112 131.01 -112 130.02 -112 129 C-111.01 129 -110.02 129 -109 129 C-109 128.01 -109 127.02 -109 126 C-108.01 126 -107.02 126 -106 126 C-106 125.01 -106 124.02 -106 123 C-105.34 123 -104.68 123 -104 123 C-104 121.35 -104 119.7 -104 118 C-103.01 118 -102.02 118 -101 118 C-101 117.01 -101 116.02 -101 115 C-100.01 115 -99.02 115 -98 115 C-98 114.01 -98 113.02 -98 112 C-97.01 112 -96.02 112 -95 112 C-95 111.01 -95 110.02 -95 109 C-94.01 109 -93.02 109 -92 109 C-92 108.01 -92 107.02 -92 106 C-91.01 106 -90.02 106 -89 106 C-89 105.01 -89 104.02 -89 103 C-88.01 103 -87.02 103 -86 103 C-86 101.35 -86 99.7 -86 98 C-85.01 98 -84.02 98 -83 98 C-83 97.01 -83 96.02 -83 95 C-82.34 95 -81.68 95 -81 95 C-81 94.01 -81 93.02 -81 92 C-80.01 92 -79.02 92 -78 92 C-78 91.01 -78 90.02 -78 89 C-77.01 89 -76.02 89 -75 89 C-75 88.01 -75 87.02 -75 86 C-74.01 86 -73.02 86 -72 86 C-72 85.01 -72 84.02 -72 83 C-71.01 83 -70.02 83 -69 83 C-69 82.34 -69 81.68 -69 81 C-68.01 81 -67.02 81 -66 81 C-66 79.02 -66 77.04 -66 75 C-65.01 75 -64.02 75 -63 75 C-63 74.01 -63 73.02 -63 72 C-62.34 72 -61.68 72 -61 72 C-61 71.01 -61 70.02 -61 69 C-60.01 69 -59.02 69 -58 69 C-58 68.01 -58 67.02 -58 66 C-57.01 66 -56.02 66 -55 66 C-55 65.01 -55 64.02 -55 63 C-54.01 63 -53.02 63 -52 63 C-52 62.01 -52 61.02 -52 60 C-51.01 60 -50.02 60 -49 60 C-49 58.35 -49 56.7 -49 55 C-48.01 55 -47.02 55 -46 55 C-46 54.01 -46 53.02 -46 52 C-45.01 52 -44.02 52 -43 52 C-43 51.01 -43 50.02 -43 49 C-42.34 49 -41.68 49 -41 49 C-41 48.01 -41 47.02 -41 46 C-40.01 46 -39.02 46 -38 46 C-38 45.01 -38 44.02 -38 43 C-37.01 43 -36.02 43 -35 43 C-35 42.01 -35 41.02 -35 40 C-34.01 40 -33.02 40 -32 40 C-32 39.34 -32 38.68 -32 38 C-31.01 38 -30.02 38 -29 38 C-29 36.02 -29 34.04 -29 32 C-28.01 32 -27.02 32 -26 32 C-26 31.01 -26 30.02 -26 29 C-25.01 29 -24.02 29 -23 29 C-23 28.01 -23 27.02 -23 26 C-22.34 26 -21.68 26 -21 26 C-21 25.01 -21 24.02 -21 23 C-20.01 23 -19.02 23 -18 23 C-18 22.01 -18 21.02 -18 20 C-17.01 20 -16.02 20 -15 20 C-15 19.34 -15 18.68 -15 18 C-14.01 18 -13.02 18 -12 18 C-12 16.02 -12 14.04 -12 12 C-11.01 12 -10.02 12 -9 12 C-9 11.01 -9 10.02 -9 9 C-8.01 9 -7.02 9 -6 9 C-6 8.01 -6 7.02 -6 6 C-5.01 6 -4.02 6 -3 6 C-3 5.01 -3 4.02 -3 3 C-2.01 3 -1.02 3 0 3 C0 2.01 0 1.02 0 0 Z " fill="#4DA6FF" transform="translate(722,183)"/>
</svg>
